<?xml version="1.0" standalone="no"?>
<!DOCTYPE svg PUBLIC "-//W3C//DTD SVG 20010904//EN"
 "http://www.w3.org/TR/2001/REC-SVG-20010904/DTD/svg10.dtd">
<svg version="1.0" xmlns="http://www.w3.org/2000/svg"
 width="277.000000pt" height="264.000000pt" viewBox="0 0 277.000000 264.000000"
 preserveAspectRatio="xMidYMid meet">

<g transform="translate(0.000000,264.000000) scale(0.100000,-0.100000)"
fill="#01208a" stroke="none">
<path d="M0 1320 l0 -1320 1385 0 1385 0 0 1320 0 1320 -1385 0 -1385 0 0
-1320z m1340 1146 c0 -2 -8 -10 -17 -17 -16 -13 -17 -12 -4 4 13 16 21 21 21
13z m3 -49 c-4 -19 -8 -25 -13 -16 -5 7 -3 20 3 30 15 23 16 20 10 -14z m24 1
c-3 -8 -6 -5 -6 6 -1 11 2 17 5 13 3 -3 4 -12 1 -19z m-72 -60 c-7 -26 -11
-49 -8 -52 4 -3 2 -6 -3 -6 -5 0 -15 9 -22 20 -10 17 -10 23 0 35 44 48 46 54
21 50 -10 -1 -12 0 -5 2 6 3 12 10 12 16 0 7 5 5 10 -4 6 -10 4 -32 -5 -61z
m80 22 c3 -11 4 -28 1 -38 -8 -24 -63 -65 -71 -52 -3 6 0 10 7 10 9 0 9 3 -2
10 -10 7 -11 10 -2 10 8 0 10 8 6 27 l-7 27 23 -22 c13 -12 26 -19 29 -16 3 4
0 9 -6 11 -9 3 -10 10 -3 22 5 10 6 21 3 25 -3 3 -1 6 5 6 6 0 14 -9 17 -20z
m-689 -33 c8 -4 14 -13 14 -19 0 -6 -9 -3 -20 7 -11 10 -20 25 -19 34 0 14 1
14 6 1 3 -8 12 -19 19 -23z m-26 -41 c-12 -12 -15 -8 -25 24 -8 25 -8 25 14 6
14 -13 18 -23 11 -30z m553 9 c-7 -21 -13 -19 -13 6 0 11 4 18 10 14 5 -3 7
-12 3 -20z m-413 -31 c0 -13 -31 0 -40 17 -11 20 -11 20 14 4 14 -10 26 -19
26 -21z m-124 -9 c-12 -23 -15 -24 -18 -8 -2 10 3 23 12 30 21 16 23 10 6 -22z
m47 -4 c3 -14 0 -18 -12 -16 -9 2 -19 4 -24 4 -4 1 -2 10 5 20 14 22 23 20 31
-8z m467 9 c0 -11 -4 -20 -9 -20 -6 0 -9 9 -8 20 1 11 5 20 9 20 4 0 8 -9 8
-20z m50 -8 c0 -15 -2 -15 -10 -2 -13 20 -13 33 0 25 6 -3 10 -14 10 -23z m36
-9 c-2 -3 5 -14 17 -26 20 -20 20 -21 1 -28 -17 -7 -17 -8 -1 -8 12 -1 16 -5
11 -13 -5 -9 -2 -9 9 1 10 8 17 9 17 3 0 -6 -5 -14 -10 -17 -6 -4 -8 -11 -5
-16 4 -5 3 -9 -2 -9 -11 0 -56 80 -49 87 2 3 0 17 -5 31 -8 22 -8 23 6 12 8
-7 13 -15 11 -17z m94 23 c0 -10 -23 -66 -27 -66 -2 0 -11 7 -20 15 -13 14
-12 17 9 35 21 18 38 25 38 16z m-547 -31 c-9 -15 -11 -15 -24 1 -12 16 -12
17 4 11 10 -4 17 -2 17 5 0 6 3 9 6 5 3 -3 2 -13 -3 -22z m336 -10 c37 -19 47
-44 24 -60 -20 -15 -33 -11 -33 10 0 8 -19 25 -42 39 l-43 26 33 0 c18 0 46
-7 61 -15z m-379 -54 c8 -28 8 -28 -20 -14 -26 12 -27 16 -17 43 12 33 21 26
37 -29z m110 49 c0 -3 -6 -15 -14 -25 -12 -17 -13 -17 -18 8 -4 20 -1 25 14
24 10 -1 18 -4 18 -7z m95 -21 c-19 -17 -35 -37 -35 -45 0 -8 -4 -14 -10 -14
-5 0 -10 -8 -10 -17 -1 -16 -2 -15 -12 2 -6 11 -18 25 -27 31 -13 10 -7 17 34
43 27 17 59 31 72 31 22 0 22 -2 -12 -31z m-255 14 c0 -5 -4 -14 -9 -22 -8
-12 -12 -12 -25 -2 -23 19 -20 31 9 31 14 0 25 -3 25 -7z m110 -44 c0 -4 -9
-17 -20 -30 l-19 -24 -1 32 c0 17 -3 39 -7 49 -6 16 -4 16 20 -2 14 -10 27
-22 27 -25z m259 16 c16 -8 31 -21 34 -29 6 -16 -18 -42 -27 -28 -7 12 -96 4
-128 -13 -39 -19 -35 -2 11 45 42 43 65 49 110 25z m160 -72 c32 -51 33 -67 3
-40 -10 10 -23 17 -29 17 -6 0 -16 7 -23 15 -7 8 -16 12 -21 9 -15 -9 -10 8 8
28 23 26 30 23 62 -29z m-480 7 c8 0 7 -9 -4 -30 -9 -16 -17 -30 -18 -30 -1 0
-3 15 -4 32 -2 18 -7 34 -13 36 -5 2 -10 8 -10 14 0 6 8 4 18 -5 10 -10 24
-17 31 -17z m101 -1 c0 -5 -7 -9 -15 -9 -9 0 -12 6 -9 15 6 15 24 11 24 -6z
m175 -19 c-3 -5 -12 -10 -18 -10 -18 -1 -52 -33 -70 -65 -16 -30 -16 -30 -16
-5 -1 47 10 67 42 78 42 13 70 14 62 2z m115 -56 c12 -22 12 -27 0 -34 -11 -7
-20 2 -37 36 -13 25 -23 47 -23 50 0 12 48 -29 60 -52z m-281 -30 c-25 -106
-25 -106 -33 -39 -4 33 -10 69 -13 79 -4 13 -1 17 9 14 8 -3 22 0 33 8 10 8
20 14 21 14 0 0 -7 -34 -17 -76z m200 54 c12 -31 8 -35 -34 -36 -19 -1 -44 -6
-55 -12 -32 -17 -14 11 27 43 44 33 51 33 62 5z m124 8 c9 -7 17 -21 17 -30 0
-9 5 -16 10 -16 16 0 10 -61 -10 -110 -10 -25 -19 -41 -19 -36 -1 6 -8 1 -16
-10 -19 -24 -19 -17 0 36 19 53 19 86 0 139 -15 43 -11 49 18 27z m-456 -58
c-3 -8 -6 -5 -6 6 -1 11 2 17 5 13 3 -3 4 -12 1 -19z m78 -118 c3 -5 -3 -10
-13 -10 -22 0 -32 25 -32 82 0 72 13 75 26 5 7 -37 16 -71 19 -77z m300 53 c0
-44 -4 -68 -12 -70 -10 -4 -12 15 -10 76 3 98 22 93 22 -6z m-47 58 c8 -5 12
-22 10 -45 l-3 -37 -21 46 c-20 43 -15 55 14 36z m222 -37 c0 -21 -28 -79 -50
-102 -23 -24 -39 -24 -24 0 10 15 10 16 25 85 10 47 13 51 30 40 11 -7 19 -17
19 -23z m-384 -10 c3 -16 12 -37 21 -46 15 -17 14 -18 -5 -18 -12 0 -22 5 -22
11 0 5 -4 7 -10 4 -11 -7 -13 27 -4 63 8 28 13 24 20 -14z m88 28 c-12 -8 -28
-59 -25 -82 1 -11 -3 -9 -14 4 -8 11 -15 24 -15 30 0 14 41 56 54 56 8 0 8 -3
0 -8z m55 -81 c1 -22 -26 6 -33 35 -11 41 6 52 20 13 7 -18 13 -40 13 -48z
m121 60 c0 -10 -8 -36 -17 -57 l-18 -39 -3 43 c-3 41 10 72 29 72 5 0 9 -8 9
-19z m-153 -87 c-2 -2 -12 -2 -21 2 -17 6 -21 39 -9 70 5 14 10 8 21 -25 8
-23 12 -44 9 -47z m-114 -26 c-16 -81 -19 -86 -26 -34 -7 52 -4 66 18 66 11 0
13 -8 8 -32z m405 7 c16 -35 16 -36 -17 -33 -19 1 -27 7 -24 15 3 7 9 13 14
13 4 0 6 7 3 15 -10 26 12 16 24 -10z m-333 -17 l16 -33 -21 24 c-11 13 -20
27 -20 32 0 18 10 8 25 -23z m-118 0 c1 -13 5 -38 8 -55 3 -18 4 -33 1 -33
-11 0 -37 62 -32 76 3 8 1 14 -5 14 -6 0 -7 5 -4 10 11 18 31 10 32 -12z m89
-13 c3 -14 16 -30 27 -36 20 -11 20 -12 1 -22 -28 -16 -47 -18 -56 -4 -11 16
-10 49 1 43 4 -3 6 6 3 19 -6 33 16 33 24 0z m162 -1 c2 -14 -3 -20 -18 -21
-11 -1 -18 2 -15 7 3 4 -3 6 -13 3 -10 -2 -27 4 -39 15 -22 18 -22 18 30 17
44 -1 52 -4 55 -21z m71 5 c33 -11 42 -29 15 -29 -21 0 -54 18 -54 30 0 12 0
12 39 -1z m236 -73 c49 -69 50 -85 7 -107 -15 -8 -30 -18 -34 -24 -4 -5 -8 17
-8 50 -1 33 -7 78 -15 100 -18 48 -17 45 -6 45 6 0 31 -29 56 -64z m-88 27 c6
-8 16 -42 22 -75 11 -61 8 -88 -6 -52 -7 21 -53 85 -67 95 -5 4 -5 12 -1 19 5
8 4 11 -2 7 -6 -4 -13 0 -16 7 -11 29 47 28 70 -1z m-203 -4 c32 2 37 -1 32
-14 -3 -9 -6 -20 -6 -25 0 -14 -63 13 -90 39 l-25 23 25 -13 c14 -7 42 -12 64
-10z m124 -26 l22 -32 -39 1 c-21 0 -45 -3 -51 -7 -8 -5 -11 -3 -8 6 3 8 11
13 17 11 7 -1 9 2 6 8 -4 6 1 20 11 31 9 10 18 18 19 17 1 -2 11 -17 23 -35z
m-195 -3 c16 -19 16 -20 -6 -34 -37 -24 -90 -29 -128 -13 l-34 15 30 1 c17 1
48 12 70 25 50 30 47 30 68 6z m24 -87 c-14 -26 -35 -57 -47 -68 l-23 -20 6
25 c4 14 7 30 7 37 0 7 7 10 18 7 14 -5 15 -4 2 5 -13 10 -10 16 20 40 19 16
36 28 38 26 2 -2 -8 -25 -21 -52z m73 38 c0 -28 -11 -52 -21 -45 -5 3 -6 -1
-3 -9 3 -8 -9 -24 -28 -39 -53 -39 -65 -43 -37 -12 29 33 49 76 49 104 0 13 7
20 20 20 13 0 20 -7 20 -19z m115 -10 c3 -5 0 -31 -6 -58 -6 -26 -11 -61 -11
-78 1 -24 -3 -20 -19 25 -12 30 -23 70 -26 88 -4 30 -3 32 26 32 16 0 32 -4
36 -9z m-388 -98 c-2 -12 0 -20 4 -17 5 3 9 3 9 1 0 -3 7 -21 15 -41 l15 -36
-29 0 c-26 0 -31 4 -37 35 -3 19 -3 61 1 93 l8 57 9 -34 c5 -19 8 -45 5 -58z
m131 72 c4 -3 -28 -75 -34 -75 -3 0 -2 10 1 23 5 17 4 18 -4 7 -5 -8 -12 -12
-13 -10 -10 13 -38 60 -38 63 0 4 83 -3 88 -8z m352 -80 c7 -16 16 -38 21 -47
6 -13 4 -17 -9 -17 -27 0 -70 -9 -81 -16 -6 -3 -11 -1 -11 4 0 6 6 11 13 11 8
0 9 2 1 8 -8 5 -10 31 -6 81 l5 74 28 -34 c16 -19 33 -47 39 -64z m-182 50 c0
-13 -4 -22 -9 -19 -5 3 -6 -2 -3 -10 3 -9 9 -14 13 -12 3 2 7 -13 9 -35 l2
-38 -52 5 c-29 4 -66 9 -83 13 l-30 8 32 16 c18 9 38 17 45 17 8 0 25 18 38
40 29 46 38 50 38 15z m-187 -109 c22 -32 38 -60 37 -61 -2 -1 -14 -5 -28 -8
-22 -5 -28 0 -48 41 -12 26 -31 72 -42 102 l-19 55 30 -35 c17 -19 48 -62 70
-94z m469 76 c0 -29 33 -80 85 -133 l50 -51 -47 28 c-26 15 -44 32 -41 38 3 5
1 6 -5 2 -15 -9 -77 33 -96 65 -19 32 -13 53 17 66 26 12 37 8 37 -15z m99
-26 c22 -9 41 -12 41 -9 0 4 2 4 5 1 8 -8 -16 -68 -27 -68 -5 0 -6 -4 -3 -10
3 -5 0 -10 -8 -10 -17 0 -60 76 -51 92 4 7 3 8 -4 4 -7 -4 -12 -3 -12 3 0 5
-3 18 -6 28 -5 17 -5 17 9 1 8 -10 33 -24 56 -32z m-330 -58 l23 -38 -25 0
c-21 0 -24 5 -25 42 -1 23 -1 39 1 37 2 -2 14 -21 26 -41z m431 23 c0 -5 8 -8
18 -7 9 0 16 -4 15 -10 -1 -6 8 -9 20 -7 13 2 40 -8 65 -25 l42 -29 -70 -12
c-39 -7 -87 -10 -106 -6 -32 5 -35 9 -31 34 6 35 25 71 37 71 6 0 10 -4 10 -9z
m-540 -35 l29 -12 -33 -30 -33 -31 -18 34 c-10 18 -22 33 -27 33 -4 0 -8 4 -8
8 0 13 57 12 90 -2z m360 -65 c17 -13 -132 10 -164 25 l-39 19 69 5 c63 5 72
3 99 -20 16 -14 32 -27 35 -29z m-316 17 c-10 -15 -12 -31 -15 -130 -2 -43 -6
-74 -10 -70 -14 17 -49 113 -49 136 0 31 16 42 38 24 15 -11 15 -11 5 3 -10
13 -9 20 8 38 22 23 37 23 23 -1z m-227 -68 c-2 -44 0 -80 3 -80 4 0 11 -20
17 -45 9 -38 8 -43 -3 -34 -8 6 -14 17 -14 23 0 6 -6 23 -14 38 -10 20 -11 29
-2 38 8 8 7 10 -6 5 -12 -5 -18 2 -24 27 -5 18 -9 38 -9 45 0 6 -4 15 -8 19
-4 4 -7 16 -7 26 0 14 8 18 35 18 l35 0 -3 -80z m1073 -102 c0 -11 -4 -10 -52
11 -38 17 -92 39 -168 69 l-25 10 43 41 44 42 79 -82 c43 -46 79 -86 79 -91z
m-693 146 l33 -5 -25 -49 c-14 -27 -25 -54 -25 -59 0 -5 -5 -22 -11 -38 -7
-15 -13 -41 -15 -57 -3 -16 -6 -31 -8 -33 -5 -5 -64 241 -60 248 4 7 44 4 111
-7z m-276 -16 c-5 -13 -14 -63 -21 -111 -8 -48 -18 -91 -23 -94 -5 -3 -8 0 -5
8 3 8 -1 34 -9 58 -7 24 -13 68 -13 97 0 55 4 60 57 63 19 1 21 -2 14 -21z
m158 -73 c6 -39 13 -103 16 -143 l5 -74 -23 29 c-13 15 -27 37 -31 48 -9 26 4
229 15 218 4 -4 13 -40 18 -78z m539 43 c-18 -24 -44 -65 -58 -93 -14 -27 -28
-52 -31 -55 -3 -3 -10 -21 -17 -40 l-11 -35 4 40 c11 108 14 127 26 162 17 49
13 45 56 53 64 13 65 11 31 -32z m-231 18 c7 -7 -194 -214 -208 -216 -3 0 -4
11 -1 25 2 14 9 25 14 25 5 0 7 4 4 9 -4 5 11 46 31 91 l37 82 58 -4 c32 -2
61 -8 65 -12z m129 -33 c-3 -16 -13 -57 -21 -93 -8 -36 -14 -78 -15 -93 0 -25
-3 -27 -35 -24 -19 2 -37 6 -40 9 -3 3 1 23 9 46 8 22 12 42 10 45 -5 5 10 70
26 113 7 18 17 24 41 24 29 0 31 -2 25 -27z m-531 -173 c10 -36 31 -94 47
-129 29 -65 32 -97 4 -44 -14 27 -36 55 -107 135 l-26 29 21 102 20 102 11
-65 c7 -36 20 -94 30 -130z m414 128 c-11 -29 -23 -60 -26 -68 -5 -13 -8 -36
-13 -101 -1 -14 -8 -14 -75 -1 l-74 15 48 41 c26 22 63 59 82 80 65 75 74 86
76 86 0 0 -8 -24 -18 -52z m300 5 c56 -18 63 -28 29 -38 -38 -12 -139 -76
-169 -108 -16 -17 -29 -27 -29 -23 0 8 79 155 93 174 12 15 15 15 76 -5z m149
-73 l42 -30 -1 -68 c0 -37 -4 -89 -8 -117 l-7 -50 -8 45 c-5 25 -10 53 -13 64
-2 10 -15 46 -29 80 -14 33 -26 66 -27 71 -2 6 -6 16 -10 23 -15 22 19 13 61
-18z m-146 -99 c-33 -107 -39 -144 -34 -204 4 -56 4 -57 -22 -57 -37 0 -41 19
-28 125 16 126 46 219 74 232 32 14 35 -13 10 -96z m84 26 l16 -52 -36 -65
c-20 -36 -44 -82 -53 -102 -10 -21 -21 -38 -24 -38 -7 0 15 101 30 135 19 44
29 82 30 119 2 37 7 56 16 56 2 0 11 -24 21 -53z m157 1 c3 -13 12 -47 20 -76
l16 -54 -41 -76 c-48 -90 -54 -98 -43 -57 9 36 11 49 20 187 8 102 16 126 28
76z m-903 -24 c0 -8 5 -14 11 -14 6 0 9 -7 5 -15 -3 -8 -1 -14 5 -12 12 2 72
-105 90 -162 7 -20 19 -46 27 -59 8 -12 13 -24 11 -25 -52 -29 -52 -29 -46
-13 4 9 3 16 -2 16 -5 0 -12 12 -16 28 -3 15 -19 54 -34 87 -46 98 -84 210
-66 195 8 -7 15 -19 15 -26z m94 7 c8 -15 37 -51 63 -78 81 -84 82 -86 19 -58
-93 41 -94 42 -98 107 -2 32 -2 58 -1 58 1 0 9 -13 17 -29z m484 -13 c-8 -13
-15 -43 -17 -67 -1 -25 -5 -49 -8 -55 -4 -5 -6 -30 -6 -55 l1 -46 -8 41 c-5
23 -20 64 -34 91 l-25 50 52 34 c29 19 54 34 56 32 2 -1 -3 -13 -11 -25z
m-693 -44 c31 -33 55 -60 137 -157 l27 -32 -35 -18 c-20 -10 -37 -17 -39 -15
-2 2 -28 54 -59 117 -31 63 -61 121 -68 128 -23 29 5 11 37 -23z m363 19 c26
-3 41 -10 38 -17 -3 -6 -10 -30 -17 -53 l-11 -43 -29 38 c-15 20 -37 47 -49
59 -26 29 -25 37 3 29 12 -3 41 -9 65 -13z m157 6 c4 -5 4 -37 0 -70 -7 -56
-8 -59 -35 -59 -26 0 -28 3 -32 45 -2 25 1 50 7 56 7 7 4 8 -9 3 -28 -11 -10
15 18 26 29 12 44 12 51 -1z m70 -76 c5 -21 10 -42 11 -48 2 -5 7 -27 13 -48
9 -36 8 -38 -8 -23 -10 9 -23 16 -29 16 -8 0 -12 24 -12 76 0 78 12 91 25 27z
m329 -82 l22 -100 -25 6 c-14 4 -52 7 -83 6 -45 0 -54 2 -44 12 7 7 32 53 57
101 24 49 45 86 47 82 2 -4 14 -52 26 -107z m-504 -60 c-9 -35 -15 -41 -46
-47 -45 -8 -51 -2 -26 33 10 15 23 39 27 53 4 14 11 30 15 35 4 6 11 26 15 45
4 19 10 40 14 45 11 18 12 -123 1 -164z m-170 87 c0 -5 5 -6 10 -3 6 4 17 1
25 -5 8 -6 19 -9 25 -5 5 3 19 0 30 -8 19 -13 19 -15 -11 -62 l-30 -48 -16 29
c-57 109 -63 123 -48 118 8 -4 15 -10 15 -16z m817 5 c-4 -3 -2 -11 3 -18 5
-7 12 -25 14 -41 2 -16 6 -36 9 -44 13 -32 27 -112 21 -121 -3 -5 -1 -15 4
-22 5 -7 12 -37 14 -67 l5 -55 -27 60 c-15 33 -25 64 -22 69 3 5 0 6 -6 2 -6
-3 -14 3 -17 15 -4 11 -9 18 -12 16 -2 -3 -14 5 -27 18 -12 12 -28 24 -35 26
-9 3 0 29 30 87 24 45 45 82 48 82 2 0 1 -3 -2 -7z m-557 -68 c-6 -8 -9 -19
-5 -24 3 -6 -1 -23 -9 -39 -8 -16 -12 -33 -8 -37 4 -4 -7 0 -24 8 -17 9 -35
13 -39 9 -5 -4 -5 2 0 13 4 11 13 42 19 68 6 26 14 45 17 42 4 -3 17 -1 30 4
20 7 25 5 27 -11 2 -10 -2 -25 -8 -33z m90 -31 c0 -8 4 -13 9 -9 20 12 19 -13
-2 -36 -12 -13 -44 -52 -71 -87 -27 -34 -51 -61 -53 -58 -2 2 20 50 49 108 49
97 68 120 68 82z m-415 -81 c-13 -120 -38 -279 -46 -293 -5 -9 -9 15 -9 62 0
43 5 80 10 83 7 4 7 11 2 18 -5 7 -12 35 -15 62 -4 28 -9 61 -12 75 -5 21 -3
26 16 27 12 1 27 7 32 12 22 22 28 9 22 -46z m535 43 c0 -2 -19 -15 -43 -30
-54 -35 -83 -77 -98 -146 -15 -66 -15 -66 -34 -50 -29 24 -13 76 47 151 23 29
128 91 128 75z m-337 -45 c-8 -35 -20 -42 -73 -39 -37 3 -45 6 -45 23 0 14 11
22 40 31 22 6 50 11 62 11 20 0 22 -3 16 -26z m515 -21 c29 -28 52 -52 52 -55
0 -3 -6 -1 -12 5 -46 38 -62 50 -70 50 -4 0 -8 7 -8 14 0 21 -90 -18 -130 -55
-35 -34 -40 -21 -9 23 26 35 76 68 105 68 11 0 44 -23 72 -50z m-447 25 c12
-3 24 -6 26 -9 3 -2 -16 -45 -42 -95 -46 -89 -61 -103 -93 -83 -10 7 -6 26 19
88 41 102 48 116 59 109 6 -4 20 -8 31 -10z m474 1 c11 -7 22 -14 25 -14 19
-2 39 -16 34 -23 -3 -5 1 -6 9 -4 7 3 21 -3 31 -14 17 -18 16 -20 -5 -35 -24
-17 -43 -12 -35 10 3 8 0 11 -8 8 -15 -6 -29 22 -19 38 3 7 1 8 -5 4 -7 -4
-24 4 -39 18 -29 28 -21 35 12 12z m-695 -44 c0 -11 7 -33 16 -51 9 -18 22
-54 29 -80 l12 -48 -27 10 c-23 9 -29 19 -40 74 -8 35 -17 66 -22 69 -10 6 9
44 22 44 6 0 10 -8 10 -18z m593 -9 c-6 -16 -5 -16 10 -5 9 8 25 11 37 7 22
-7 28 -25 8 -25 -7 0 -25 -6 -39 -14 -24 -12 -26 -12 -22 5 3 11 1 19 -5 19
-11 0 -62 -113 -62 -139 0 -10 -7 -18 -15 -18 -21 0 -19 29 8 79 36 71 99 142
80 91z m-493 -22 c0 -11 -4 -22 -9 -25 -5 -3 -7 -16 -3 -28 3 -12 1 -19 -5
-15 -5 4 -8 -6 -5 -24 3 -17 0 -29 -7 -29 -6 0 -12 9 -12 20 -2 23 -3 29 -12
50 -30 70 -30 70 13 70 33 0 40 -3 40 -19z m343 -19 c-3 -12 -9 -22 -14 -22
-5 0 -5 -7 -2 -17 4 -11 3 -14 -5 -9 -8 5 -10 -2 -5 -25 3 -18 2 -30 -3 -27
-10 6 -10 -90 0 -132 3 -14 8 -37 10 -52 2 -14 9 -35 15 -46 6 -12 11 -23 11
-26 0 -11 -37 -6 -74 9 l-36 15 0 71 c0 56 7 87 31 147 17 42 36 84 43 92 7 8
16 24 20 34 9 25 17 16 9 -12z m54 -33 c-16 -32 -22 -62 -22 -111 l0 -67 -23
45 c-21 41 -22 50 -11 78 13 31 70 109 75 103 2 -2 -7 -23 -19 -48z m187 25
c8 -21 6 -121 -4 -159 -6 -24 -8 -19 -9 30 0 33 -5 75 -11 94 -9 34 -6 51 10
51 4 0 11 -7 14 -16z m156 -23 c6 -17 9 -35 5 -40 -3 -6 -1 -11 4 -11 7 0 11
-29 10 -77 -1 -61 -3 -72 -9 -49 -5 16 -7 33 -4 38 3 4 1 8 -5 8 -5 0 -13 15
-16 33 -4 17 -12 37 -17 44 -5 7 -6 18 -2 24 4 7 3 9 -3 6 -6 -4 -14 0 -17 9
-9 23 3 32 15 14 9 -13 10 -12 6 2 -6 16 0 28 13 28 4 0 13 -13 20 -29z m-200
3 c0 -9 -5 -12 -12 -8 -7 4 -6 -1 3 -12 9 -10 19 -41 22 -69 l5 -50 -17 35
c-9 19 -26 48 -36 64 -19 28 -19 29 0 42 25 18 35 18 35 -2z m100 -47 c15 -52
4 -100 -25 -113 -18 -9 -22 -8 -19 1 10 26 20 155 11 155 -4 0 -5 5 -1 11 9
15 21 -4 34 -54z m-169 -73 c7 -30 16 -57 21 -60 16 -10 7 -24 -16 -24 -19 0
-25 7 -33 38 -11 41 -5 115 7 107 5 -3 14 -30 21 -61z m30 29 c13 -21 31 -47
41 -57 21 -23 22 -32 6 -38 -21 -8 -37 2 -31 18 3 8 1 14 -5 14 -9 0 -24 30
-37 78 -9 32 0 27 26 -15z m197 12 c10 -21 9 -26 -8 -35 -18 -10 -20 -7 -20
25 0 41 12 45 28 10z m-841 -63 c-3 -38 -12 -83 -21 -100 -29 -57 -34 -34 -10
43 13 42 24 87 24 100 0 14 3 25 6 25 4 0 4 -31 1 -68z m340 49 l24 -20 -42
-22 c-24 -12 -48 -26 -55 -33 -30 -29 -54 -45 -54 -37 0 30 71 131 93 131 5 0
20 -9 34 -19z m-164 -7 c7 -7 -61 -108 -105 -158 -25 -28 -29 -29 -44 -15 -15
15 -11 69 5 69 3 0 7 21 9 47 3 56 4 58 31 43 20 -10 21 -12 4 -43 -9 -18 -18
-38 -19 -45 -1 -7 -9 -24 -18 -37 -9 -13 -12 -26 -8 -29 5 -3 16 8 26 25 9 16
21 27 26 24 5 -3 12 0 16 6 4 8 3 9 -4 5 -17 -10 -15 -1 9 47 33 64 52 81 72
61z m391 -66 c3 -19 15 -50 26 -71 24 -44 14 -48 -22 -9 -23 24 -48 86 -48
120 0 27 38 -8 44 -40z m300 10 c10 -39 7 -74 -11 -114 l-17 -39 -8 75 c-4 41
-5 81 -3 88 7 20 32 14 39 -10z m113 0 c-3 -8 -6 -5 -6 6 -1 11 2 17 5 13 3
-3 4 -12 1 -19z m-457 -72 c36 -41 63 -66 72 -66 4 0 8 -4 8 -9 0 -6 -12 -6
-32 0 -41 11 -47 11 -28 -2 12 -8 10 -9 -10 -7 -20 2 -27 13 -42 58 -9 30 -17
66 -17 80 l0 25 12 -25 c7 -14 23 -38 37 -54z m428 -63 l-3 -48 -45 4 c-25 1
-47 5 -49 7 -3 2 5 14 16 27 26 29 58 85 69 122 8 28 9 28 12 -17 2 -27 2 -69
0 -95z m-145 57 l6 -65 -28 55 -29 55 22 12 c11 6 22 11 22 10 1 -1 4 -31 7
-67z m-445 33 c-3 -25 -9 -29 -48 -36 -25 -4 -55 -9 -67 -10 -13 -1 -23 -5
-23 -8 0 -4 -9 -9 -20 -12 -34 -9 -22 8 29 41 54 36 88 50 114 51 14 1 18 -5
15 -26z m-204 -25 c-26 -52 -64 -99 -75 -92 -6 3 -9 10 -7 14 4 10 90 110 95
110 2 0 -4 -15 -13 -32z m564 20 c36 -36 -22 -64 -81 -41 -44 18 -48 33 -9 34
15 0 36 4 47 9 27 12 29 12 43 -2z m-388 -58 c22 -14 2 -28 -45 -32 -22 -2
-46 -8 -53 -12 -7 -4 -20 -5 -28 -2 -8 3 -13 2 -10 -3 6 -8 -44 -57 -55 -54
-4 1 -5 -8 -2 -20 l5 -22 -17 23 c-16 22 -16 24 13 52 39 37 72 55 97 52 15
-2 17 -1 6 7 -11 7 -10 10 5 14 33 8 68 7 84 -3z m459 -60 c0 -13 -1 -13 -7 0
-4 8 -20 16 -36 17 -57 4 -64 13 -26 33 l35 18 17 -26 c10 -15 18 -34 17 -42z
m-749 6 c11 -14 7 -16 -29 -16 -42 0 -53 14 -29 38 12 12 36 3 58 -22z m280
-6 c0 -12 -8 -12 -35 0 -18 8 -17 9 8 9 15 1 27 -3 27 -9z m357 -7 c3 -10 18
-31 32 -48 30 -33 9 -21 -52 32 -36 32 -36 33 -12 33 15 0 28 -7 32 -17z
m-777 -3 c-8 -6 -24 -15 -35 -21 -16 -8 -15 -6 4 10 13 12 28 21 35 21 6 0 4
-5 -4 -10z m33 -33 c-6 -39 -10 -42 -33 -27 -13 9 -13 11 0 20 8 5 12 10 8 10
-5 0 0 8 10 18 9 10 18 18 19 17 1 0 0 -18 -4 -38z m312 35 c6 -4 11 -18 12
-32 l1 -25 -10 23 c-12 24 -23 28 -33 12 -3 -5 -1 -10 6 -10 7 0 10 -3 6 -6
-14 -14 -26 8 -14 26 13 22 17 23 32 12z m521 -27 c30 -33 64 -49 48 -22 -5 8
-3 8 9 -2 9 -7 14 -17 11 -22 -3 -5 0 -9 7 -9 7 0 9 -3 6 -6 -4 -4 -13 -2 -20
4 -8 7 -16 9 -20 6 -10 -10 -68 30 -63 43 3 7 -1 10 -8 7 -8 -3 -16 4 -19 15
-8 31 13 25 49 -14z m-489 3 c-3 -8 -6 -5 -6 6 -1 11 2 17 5 13 3 -3 4 -12 1
-19z m93 15 c-8 -3 -18 -10 -21 -15 -3 -5 -9 -3 -12 6 -5 12 0 16 21 15 16 0
21 -3 12 -6z m230 -11 c8 -10 22 -26 30 -37 14 -19 14 -19 -6 -3 -11 10 -35
21 -52 24 -31 6 -39 14 -25 27 12 13 38 7 53 -11z m-145 -6 c-20 -14 -35 -12
-35 5 0 5 12 9 27 9 26 0 26 -1 8 -14z m421 5 c-4 -5 0 -12 6 -15 7 -3 2 -4
-12 -1 l-25 5 25 -12 c31 -15 60 -47 60 -65 0 -14 -21 -15 -60 -3 -25 8 -25 8
5 9 l30 2 -33 30 c-27 24 -31 33 -22 45 13 15 35 20 26 5z m116 2 c-10 -4 -10
-8 -1 -19 15 -18 8 -18 -26 0 l-27 14 23 5 c34 6 46 6 31 0z m-932 -13 c0 -5
-8 -10 -17 -10 -14 0 -15 -2 -4 -9 22 -14 5 -27 -39 -29 -55 -4 -49 17 11 40
24 9 45 17 47 17 1 1 2 -3 2 -9z m249 -30 c0 -10 -3 -8 -9 5 -12 27 -12 43 0
25 5 -8 9 -22 9 -30z m639 20 c14 0 15 -2 2 -9 -18 -12 -30 -5 -29 17 0 11 3
12 6 5 2 -7 12 -13 21 -13z m-753 0 c3 -5 1 -10 -4 -10 -6 0 -11 5 -11 10 0 6
2 10 4 10 3 0 8 -4 11 -10z m510 -38 c18 -9 16 -11 -12 -10 -18 1 -30 4 -28 8
3 4 -2 13 -10 20 -8 7 -15 17 -15 23 0 6 10 1 23 -10 12 -11 31 -25 42 -31z
m-428 20 c0 -10 -6 -19 -13 -19 -9 0 -9 5 -1 19 7 10 13 18 14 18 1 0 1 -8 0
-18z m86 -3 c3 -12 3 -18 0 -15 -4 3 -13 0 -22 -6 -13 -10 -14 -10 -3 2 17 20
15 35 -3 20 -14 -12 -22 0 -8 13 13 14 31 7 36 -14z m174 2 c7 -9 13 -27 13
-40 0 -19 -3 -21 -14 -12 -17 14 -54 17 -86 7 -24 -8 -23 -7 8 26 36 38 60 44
79 19z m84 -27 c7 -8 2 -14 -16 -18 -14 -4 -25 -11 -25 -16 0 -6 -5 -10 -11
-10 -6 0 -9 6 -6 14 3 8 2 29 -3 46 l-9 30 30 -17 c17 -10 35 -23 40 -29z
m-211 26 c-8 -5 -19 -10 -25 -10 -5 0 -3 5 5 10 8 5 20 10 25 10 6 0 3 -5 -5
-10z m-217 -7 c-7 -2 -19 -2 -25 0 -7 3 -2 5 12 5 14 0 19 -2 13 -5z m793 -4
c7 -12 -15 -31 -28 -23 -4 3 -8 12 -8 20 0 17 26 19 36 3z m-462 -58 c4 -5 3
-16 0 -25 -5 -12 -10 -13 -26 -5 -12 6 -41 9 -64 6 -24 -2 -44 -3 -44 -1 0 2
12 10 28 18 30 17 98 21 106 7z m-84 -60 c0 -22 -16 -36 -24 -23 -3 5 -19 9
-37 10 -17 0 -33 3 -36 6 -4 3 54 20 90 25 4 1 7 -8 7 -18z m35 -3 c-11 -36
-22 -41 -17 -8 2 16 9 30 14 30 5 0 6 -10 3 -22z m-356 -15 c-4 -25 2 -43 13
-37 7 4 8 3 4 -4 -10 -17 -26 -15 -26 3 0 9 -7 18 -15 21 -22 9 -18 24 5 24
11 0 19 -3 19 -7z m237 -12 c-4 -5 2 -7 11 -5 10 3 27 -1 37 -9 19 -14 19 -15
0 -25 -17 -9 -25 -6 -47 14 -31 29 -33 34 -11 34 8 0 13 -4 10 -9z m-298 -28
c15 -15 29 -27 32 -26 3 1 13 -12 22 -28 17 -29 17 -30 -8 -39 -32 -12 -37
-12 -29 -1 3 5 1 12 -4 16 -14 8 -42 66 -36 74 2 4 -5 7 -17 7 -12 -1 -23 5
-25 12 -8 23 37 12 65 -15z m289 -17 c13 -15 20 -32 17 -38 -4 -6 -16 1 -29
16 -12 14 -27 26 -34 26 -6 0 -11 4 -11 9 0 6 -9 8 -20 6 -12 -2 -31 0 -43 6
-16 7 -7 8 37 6 50 -3 63 -8 83 -31z m-157 14 c8 -5 12 -11 10 -14 -3 -2 -14
2 -24 10 -22 15 -10 19 14 4z m-151 -63 c10 -16 9 -16 -11 -5 -37 22 -58 42
-58 56 0 15 50 -21 69 -51z m148 27 c38 -29 41 -44 14 -61 -18 -11 -20 -9 -26
20 -4 18 -14 40 -23 50 -22 25 -4 21 35 -9z m83 -27 c-1 -12 -24 -47 -32 -47
-2 0 -2 16 0 35 3 25 0 36 -12 41 -9 3 -16 10 -16 16 0 5 14 0 30 -12 17 -12
30 -27 30 -33z m38 22 c12 -11 20 -24 17 -30 -10 -15 -25 -10 -25 7 0 9 -8 23
-17 30 -10 7 -13 14 -7 14 5 0 20 -9 32 -21z m-153 -58 c-3 -6 -16 -11 -28
-11 -21 0 -21 1 3 13 27 15 36 14 25 -2z"/>
<path d="M1137 2239 c7 -7 15 -10 18 -7 3 3 -2 9 -12 12 -14 6 -15 5 -6 -5z"/>
<path d="M1698 1493 c7 -3 16 -2 19 1 4 3 -2 6 -13 5 -11 0 -14 -3 -6 -6z"/>
<path d="M1218 1090 c9 -16 18 -28 19 -26 6 6 -11 45 -22 50 -10 3 -9 -3 3
-24z"/>
<path d="M1543 1145 c-3 -9 -3 -19 1 -22 3 -4 6 1 6 10 0 8 6 18 13 20 9 4 9
6 -1 6 -7 1 -15 -6 -19 -14z"/>
<path d="M1475 850 c-3 -5 -1 -10 4 -10 6 0 11 5 11 10 0 6 -2 10 -4 10 -3 0
-8 -4 -11 -10z"/>
<path d="M1461 804 c0 -11 3 -14 6 -6 3 7 2 16 -1 19 -3 4 -6 -2 -5 -13z"/>
<path d="M1426 707 c3 -10 9 -15 12 -12 3 3 0 11 -7 18 -10 9 -11 8 -5 -6z"/>
<path d="M1756 341 c-3 -5 1 -12 10 -15 22 -8 25 -4 9 11 -8 7 -16 9 -19 4z"/>
<path d="M1320 104 c0 -8 5 -12 10 -9 6 4 8 11 5 16 -9 14 -15 11 -15 -7z"/>
</g>
</svg>
